<?xml version="1.0" encoding="UTF-8" standalone="no"?>
<svg
   xmlns:dc="http://purl.org/dc/elements/1.1/"
   xmlns:cc="http://creativecommons.org/ns#"
   xmlns:rdf="http://www.w3.org/1999/02/22-rdf-syntax-ns#"
   xmlns:svg="http://www.w3.org/2000/svg"
   xmlns="http://www.w3.org/2000/svg"
   xmlns:sodipodi="http://sodipodi.sourceforge.net/DTD/sodipodi-0.dtd"
   xmlns:inkscape="http://www.inkscape.org/namespaces/inkscape"
   version="1.0"
   width="424.16541pt"
   height="750pt"
   viewBox="0 0 424.16541 750"
   preserveAspectRatio="xMidYMid meet"
   id="svg14"
   sodipodi:docname="ABP_Majha.svg"
   inkscape:version="0.92.3 (2405546, 2018-03-11)">
  <metadata
     id="metadata20">
    <rdf:RDF>
      <cc:Work
         rdf:about="">
        <dc:format>image/svg+xml</dc:format>
        <dc:type
           rdf:resource="http://purl.org/dc/dcmitype/StillImage" />
      </cc:Work>
    </rdf:RDF>
  </metadata>
  <defs
     id="defs18" />
  <sodipodi:namedview
     pagecolor="#ffffff"
     bordercolor="#666666"
     borderopacity="1"
     objecttolerance="10"
     gridtolerance="10"
     guidetolerance="10"
     inkscape:pageopacity="0"
     inkscape:pageshadow="2"
     inkscape:window-width="1366"
     inkscape:window-height="705"
     id="namedview16"
     showgrid="false"
     inkscape:zoom="0.177"
     inkscape:cx="-350.22305"
     inkscape:cy="603.76473"
     inkscape:window-x="-8"
     inkscape:window-y="-8"
     inkscape:window-maximized="1"
     inkscape:current-layer="svg14" />
  <g
     transform="matrix(0.0827154,0,0,-0.0827154,-201.49428,789.0222)"
     id="g12"
     style="fill:#f00000;stroke:none">
    <path
       d="M 3714,7322 C 3010,6103 2434,5103 2436,5102 c 1,-2 577,327 1278,732 702,405 1280,736 1286,736 6,0 584,-331 1286,-736 701,-405 1277,-734 1278,-732 4,4 -2558,4437 -2564,4437 -3,0 -581,-997 -1286,-2217 z"
       id="path2"
       inkscape:connector-curvature="0" />
    <path
       d="m 4480,3735 v -695 h 95 94 l 37,65 36,66 58,-56 c 77,-73 133,-97 241,-103 156,-8 262,32 370,138 111,109 163,245 162,420 -1,231 -105,410 -291,503 l -85,42 h -116 c -111,0 -119,-1 -183,-33 -42,-20 -82,-50 -107,-79 l -41,-46 v 237 236 h -135 -135 z m 655,111 c 65,-30 112,-78 144,-146 21,-45 25,-70 25,-135 0,-132 -53,-224 -160,-276 -58,-29 -71,-31 -131,-27 -84,6 -137,32 -191,93 -52,59 -72,119 -72,214 0,111 41,191 132,260 60,45 176,53 253,17 z"
       id="path4"
       inkscape:connector-curvature="0" />
    <path
       d="m 3528,4097 c -172,-60 -293,-202 -333,-393 -54,-256 48,-519 246,-632 86,-48 158,-65 264,-60 114,5 179,34 253,112 57,60 52,61 101,-26 l 32,-58 h 95 94 v 525 525 h -135 -135 v -65 -65 l -41,45 c -24,26 -70,59 -107,78 -60,29 -77,32 -167,35 -84,2 -111,-1 -167,-21 z m 339,-263 c 128,-80 179,-259 114,-407 -100,-228 -422,-218 -510,16 -60,162 16,358 160,410 70,26 177,17 236,-19 z"
       id="path6"
       inkscape:connector-curvature="0" />
    <path
       d="m 6193,4106 c -59,-19 -103,-48 -156,-105 -51,-55 -47,-56 -96,32 l -32,57 h -95 -94 v -685 -685 h 135 135 v 225 225 l 41,-45 c 24,-26 70,-59 107,-77 88,-44 215,-51 320,-19 219,66 362,278 362,536 0,255 -143,469 -359,535 -74,23 -203,26 -268,6 z m 210,-269 c 196,-115 196,-429 1,-543 -60,-35 -152,-43 -222,-20 -63,21 -135,88 -165,154 -33,70 -31,208 3,277 31,64 98,129 153,149 65,24 173,16 230,-17 z"
       id="path8"
       inkscape:connector-curvature="0" />
    <path
       d="m 2890,2005 v -105 h 175 175 v -225 -225 l -27,-5 c -117,-24 -153,-56 -153,-136 0,-92 46,-164 168,-260 l 73,-59 h 90 89 v 120 120 h 220 220 V 985 739 l 123,3 122,3 3,578 2,577 h 160 160 V 1320 740 h 120 120 v 580 580 h 405 405 v -64 -64 l -173,-4 c -171,-3 -173,-3 -238,-35 -76,-38 -114,-84 -128,-155 -23,-128 41,-250 164,-312 75,-37 125,-45 270,-46 149,0 170,-8 181,-66 14,-77 -47,-139 -164,-169 l -64,-17 -35,41 c -76,89 -187,122 -277,83 -38,-18 -50,-29 -67,-68 -56,-125 40,-240 231,-274 62,-11 69,-15 145,-89 87,-85 229,-195 243,-189 20,7 124,140 116,147 -5,4 -54,41 -108,81 -94,70 -98,74 -75,83 141,57 214,117 242,202 9,27 17,57 17,67 0,16 11,18 125,18 h 125 V 905 740 h 120 120 v 580 580 h 160 160 V 1320 740 h 120 120 v 580 580 h 120 120 v 105 105 H 5000 2890 Z m 1030,-330 v -225 h -220 -220 v 225 225 h 220 220 z m 2150,-74 v -299 l -22,-6 c -13,-4 -75,-10 -139,-13 l -116,-6 -44,45 c -81,82 -109,91 -305,98 -150,4 -175,7 -193,24 -31,29 -28,81 6,103 23,16 60,19 273,23 l 245,5 3,163 2,162 h 145 145 z"
       id="path10"
       inkscape:connector-curvature="0" />
  </g>
</svg>
